<svg xmlns="http://www.w3.org/2000/svg" xmlns:xlink="http://www.w3.org/1999/xlink" width="1100" zoomAndPan="magnify" viewBox="0 0 824.88 202.499994" height="270" preserveAspectRatio="xMidYMid meet" version="1.0"><defs><clipPath id="30534107b5"><path d="M 306.164062 46.453125 L 337.796875 46.453125 L 337.796875 154.339844 L 306.164062 154.339844 Z M 306.164062 46.453125 " clip-rule="nonzero"/></clipPath><clipPath id="beffb8fade"><path d="M 245.292969 38.652344 L 398.675781 38.652344 L 398.675781 70.285156 L 245.292969 70.285156 Z M 245.292969 38.652344 " clip-rule="nonzero"/></clipPath><clipPath id="b365c675c9"><path d="M 245.292969 125.742188 L 398.675781 125.742188 L 398.675781 157.375 L 245.292969 157.375 Z M 245.292969 125.742188 " clip-rule="nonzero"/></clipPath><clipPath id="297074d8b9"><path d="M 81.328125 77.347656 L 171.558594 77.347656 L 171.558594 125.875 L 81.328125 125.875 Z M 81.328125 77.347656 " clip-rule="nonzero"/></clipPath><clipPath id="35db428aef"><path d="M 81.328125 101.609375 C 81.328125 88.210938 101.503906 77.347656 126.390625 77.347656 C 151.28125 77.347656 171.457031 88.210938 171.457031 101.609375 C 171.457031 115.007812 151.28125 125.871094 126.390625 125.871094 C 101.503906 125.871094 81.328125 115.011719 81.328125 101.609375 Z M 81.328125 101.609375 " clip-rule="nonzero"/></clipPath><clipPath id="46d5475d47"><path d="M 33.230469 38.785156 L 219.75 38.785156 L 219.75 89.4375 L 33.230469 89.4375 Z M 33.230469 38.785156 " clip-rule="nonzero"/></clipPath><clipPath id="caf011ce8a"><path d="M 33.230469 89.046875 C 33.230469 61.289062 74.9375 38.785156 126.386719 38.785156 C 177.839844 38.785156 219.546875 61.289062 219.546875 89.046875 L 194.417969 89.046875 C 194.417969 75.167969 163.960938 63.917969 126.386719 63.917969 C 88.816406 63.917969 58.359375 75.167969 58.359375 89.046875 Z M 33.230469 89.046875 " clip-rule="nonzero"/></clipPath><clipPath id="9c3dd73e97"><path d="M 33.019531 114 L 219.539062 114 L 219.539062 164.4375 L 33.019531 164.4375 Z M 33.019531 114 " clip-rule="nonzero"/></clipPath><clipPath id="522ae6e696"><path d="M 219.539062 114.171875 C 219.539062 141.933594 177.832031 164.4375 126.382812 164.4375 C 74.933594 164.4375 33.226562 141.933594 33.226562 114.171875 L 58.355469 114.171875 C 58.355469 128.054688 88.8125 139.300781 126.382812 139.300781 C 163.953125 139.300781 194.410156 128.054688 194.410156 114.171875 Z M 219.539062 114.171875 " clip-rule="nonzero"/></clipPath><clipPath id="16b9974440"><path d="M 103.867188 90.195312 L 148.914062 90.195312 L 148.914062 113.027344 L 103.867188 113.027344 Z M 103.867188 90.195312 " clip-rule="nonzero"/></clipPath><clipPath id="74f312468e"><path d="M 103.867188 101.613281 C 103.867188 95.304688 113.953125 90.195312 126.390625 90.195312 C 138.824219 90.195312 148.910156 95.304688 148.910156 101.613281 C 148.910156 107.917969 138.824219 113.027344 126.390625 113.027344 C 113.953125 113.027344 103.867188 107.917969 103.867188 101.613281 Z M 103.867188 101.613281 " clip-rule="nonzero"/></clipPath><clipPath id="7b17ffb701"><path d="M 73 28 L 96 28 L 96 57 L 73 57 Z M 73 28 " clip-rule="nonzero"/></clipPath><clipPath id="dbbbd7c612"><path d="M 86.460938 28 L 95.128906 52.460938 L 82.5625 56.914062 L 73.894531 32.453125 Z M 86.460938 28 " clip-rule="nonzero"/></clipPath><clipPath id="0306e0fd06"><path d="M 157 28 L 179 28 L 179 57 L 157 57 Z M 157 28 " clip-rule="nonzero"/></clipPath><clipPath id="30b8dcedaa"><path d="M 178.621094 32.214844 L 170.503906 56.867188 L 157.84375 52.699219 L 165.957031 28.046875 Z M 178.621094 32.214844 " clip-rule="nonzero"/></clipPath><clipPath id="d625f32fd7"><path d="M 119.789062 23.730469 L 133.121094 23.730469 L 133.121094 49.683594 L 119.789062 49.683594 Z M 119.789062 23.730469 " clip-rule="nonzero"/></clipPath><clipPath id="58ab3857f7"><path d="M 470.839844 28.015625 L 523.339844 28.015625 L 523.339844 164.058594 L 470.839844 164.058594 Z M 470.839844 28.015625 " clip-rule="nonzero"/></clipPath><clipPath id="38b3434a35"><path d="M 470.984375 164.023438 L 492.148438 28.160156 L 523.199219 28.160156 L 502.027344 164.023438 Z M 470.984375 164.023438 " clip-rule="nonzero"/></clipPath><clipPath id="5fbbd9923c"><path d="M 470.214844 27.597656 L 523.964844 27.597656 L 523.964844 164.683594 L 470.214844 164.683594 Z M 470.214844 27.597656 " clip-rule="nonzero"/></clipPath><clipPath id="6b533c1705"><path d="M 470.429688 163.941406 L 491.597656 28.074219 C 491.640625 27.800781 491.875 27.597656 492.148438 27.597656 L 523.199219 27.597656 C 523.363281 27.597656 523.519531 27.671875 523.625 27.796875 C 523.734375 27.917969 523.777344 28.085938 523.753906 28.242188 L 502.582031 164.113281 C 502.539062 164.390625 502.300781 164.589844 502.027344 164.589844 L 470.984375 164.589844 C 470.820312 164.589844 470.664062 164.519531 470.558594 164.394531 C 470.453125 164.269531 470.40625 164.101562 470.429688 163.945312 M 471.539062 164.121094 L 470.984375 164.023438 L 470.984375 163.464844 L 502.027344 163.464844 L 502.027344 164.023438 L 501.472656 163.941406 L 522.648438 28.074219 L 523.199219 28.160156 L 523.199219 28.71875 L 492.148438 28.71875 L 492.148438 28.160156 L 492.703125 28.242188 L 471.539062 164.113281 Z M 471.539062 164.121094 " clip-rule="nonzero"/></clipPath><clipPath id="5c174a9dee"><path d="M 431 118 L 515 118 L 515 173 L 431 173 Z M 431 118 " clip-rule="nonzero"/></clipPath><clipPath id="b17c8859f1"><path d="M 440.859375 108.582031 L 521.90625 138.433594 L 505.46875 183.054688 L 424.421875 153.199219 Z M 440.859375 108.582031 " clip-rule="nonzero"/></clipPath><clipPath id="5b55388ba7"><path d="M 432.640625 130.890625 C 437.179688 118.570312 458.980469 115.257812 481.332031 123.492188 C 503.683594 131.722656 518.128906 148.386719 513.589844 160.707031 C 509.054688 173.03125 487.25 176.34375 464.898438 168.109375 C 442.546875 159.875 428.101562 143.210938 432.640625 130.890625 Z M 432.640625 130.890625 " clip-rule="nonzero"/></clipPath><clipPath id="3e334e521e"><path d="M 523.714844 28.015625 L 576.214844 28.015625 L 576.214844 164.058594 L 523.714844 164.058594 Z M 523.714844 28.015625 " clip-rule="nonzero"/></clipPath><clipPath id="3736f42536"><path d="M 576.074219 164.023438 L 554.902344 28.160156 L 523.855469 28.160156 L 545.023438 164.023438 Z M 576.074219 164.023438 " clip-rule="nonzero"/></clipPath><clipPath id="94fa29aed3"><path d="M 523.089844 27.390625 L 576.839844 27.390625 L 576.839844 164.683594 L 523.089844 164.683594 Z M 523.089844 27.390625 " clip-rule="nonzero"/></clipPath><clipPath id="02888b4903"><path d="M 575.519531 164.113281 L 554.347656 28.242188 L 554.902344 28.160156 L 554.902344 28.71875 L 523.855469 28.71875 L 523.855469 28.160156 L 524.410156 28.074219 L 545.578125 163.941406 L 545.023438 164.023438 L 545.023438 163.464844 L 576.074219 163.464844 L 576.074219 164.023438 L 575.519531 164.109375 M 576.628906 163.933594 C 576.652344 164.097656 576.605469 164.261719 576.5 164.382812 C 576.394531 164.507812 576.238281 164.578125 576.074219 164.578125 L 545.023438 164.578125 C 544.75 164.578125 544.515625 164.378906 544.46875 164.101562 L 523.304688 28.242188 C 523.28125 28.085938 523.324219 27.917969 523.429688 27.796875 C 523.539062 27.671875 523.695312 27.597656 523.855469 27.597656 L 554.902344 27.597656 C 555.175781 27.597656 555.410156 27.800781 555.457031 28.074219 L 576.621094 163.941406 Z M 576.628906 163.933594 " clip-rule="nonzero"/></clipPath><clipPath id="f60b8c2284"><path d="M 532 114 L 611 114 L 611 175 L 532 175 Z M 532 114 " clip-rule="nonzero"/></clipPath><clipPath id="d410d47b79"><path d="M 620.390625 142.140625 L 546.636719 187.082031 L 521.894531 146.476562 L 595.648438 101.535156 Z M 620.390625 142.140625 " clip-rule="nonzero"/></clipPath><clipPath id="3d0fe476d9"><path d="M 608.019531 121.839844 C 614.851562 133.050781 603.898438 152.191406 583.558594 164.585938 C 563.214844 176.980469 541.183594 177.9375 534.351562 166.726562 C 527.519531 155.515625 538.472656 136.375 558.816406 123.980469 C 579.15625 111.585938 601.1875 110.625 608.019531 121.839844 Z M 608.019531 121.839844 " clip-rule="nonzero"/></clipPath><clipPath id="4021f6d82f"><path d="M 646.140625 15 L 791.652344 15 L 791.652344 166 L 646.140625 166 Z M 646.140625 15 " clip-rule="nonzero"/></clipPath></defs><g clip-path="url(#30534107b5)"><path fill="#e8e8e8" d="M 337.796875 46.453125 L 337.796875 154.316406 L 306.167969 154.316406 L 306.167969 46.453125 Z M 337.796875 46.453125 " fill-opacity="1" fill-rule="nonzero"/></g><g clip-path="url(#beffb8fade)"><path fill="#ebebeb" d="M 245.292969 38.652344 L 398.625 38.652344 L 398.625 70.28125 L 245.292969 70.28125 Z M 245.292969 38.652344 " fill-opacity="1" fill-rule="nonzero"/></g><g clip-path="url(#b365c675c9)"><path fill="#ffffff" d="M 245.292969 125.742188 L 398.625 125.742188 L 398.625 157.375 L 245.292969 157.375 Z M 245.292969 125.742188 " fill-opacity="1" fill-rule="nonzero"/></g><g clip-path="url(#297074d8b9)"><g clip-path="url(#35db428aef)"><path fill="#ebebeb" d="M 81.328125 77.347656 L 171.371094 77.347656 L 171.371094 125.875 L 81.328125 125.875 Z M 81.328125 77.347656 " fill-opacity="1" fill-rule="nonzero"/></g></g><g clip-path="url(#46d5475d47)"><g clip-path="url(#caf011ce8a)"><path fill="#ffffff" d="M 33.230469 38.785156 L 219.359375 38.785156 L 219.359375 139.308594 L 33.230469 139.308594 Z M 33.230469 38.785156 " fill-opacity="1" fill-rule="nonzero"/></g></g><g clip-path="url(#9c3dd73e97)"><g clip-path="url(#522ae6e696)"><path fill="#ffffff" d="M 219.539062 164.4375 L 33.414062 164.4375 L 33.414062 63.914062 L 219.539062 63.914062 Z M 219.539062 164.4375 " fill-opacity="1" fill-rule="nonzero"/></g></g><g clip-path="url(#16b9974440)"><g clip-path="url(#74f312468e)"><path fill="#ffffff" d="M 103.867188 90.195312 L 148.914062 90.195312 L 148.914062 113.027344 L 103.867188 113.027344 Z M 103.867188 90.195312 " fill-opacity="1" fill-rule="nonzero"/></g></g><g clip-path="url(#7b17ffb701)"><g clip-path="url(#dbbbd7c612)"><path fill="#ebebeb" d="M 105.324219 16.351562 L 117.117188 49.636719 L 63.683594 68.570312 L 51.890625 35.285156 Z M 105.324219 16.351562 " fill-opacity="1" fill-rule="nonzero"/></g></g><g clip-path="url(#0306e0fd06)"><g clip-path="url(#30b8dcedaa)"><path fill="#ebebeb" d="M 200.667969 34.546875 L 189.628906 68.085938 L 135.78125 50.363281 L 146.820312 16.820312 Z M 200.667969 34.546875 " fill-opacity="1" fill-rule="nonzero"/></g></g><g clip-path="url(#d625f32fd7)"><path fill="#ebebeb" d="M 154.792969 19.050781 L 154.792969 54.363281 L 98.105469 54.363281 L 98.105469 19.050781 Z M 154.792969 19.050781 " fill-opacity="1" fill-rule="nonzero"/></g><g clip-path="url(#58ab3857f7)"><g clip-path="url(#38b3434a35)"><path fill="#ffffff" d="M 470.421875 27.597656 L 523.757812 27.597656 L 523.757812 164.683594 L 470.421875 164.683594 Z M 470.421875 27.597656 " fill-opacity="1" fill-rule="nonzero"/></g></g><g clip-path="url(#5fbbd9923c)"><g clip-path="url(#6b533c1705)"><path fill="#385724" d="M 470.421875 27.597656 L 523.757812 27.597656 L 523.757812 164.683594 L 470.421875 164.683594 Z M 470.421875 27.597656 " fill-opacity="1" fill-rule="nonzero"/></g></g><g clip-path="url(#5c174a9dee)"><g clip-path="url(#b17c8859f1)"><g clip-path="url(#5b55388ba7)"><path fill="#ebebeb" d="M 440.859375 108.582031 L 521.730469 138.371094 L 505.296875 182.988281 L 424.421875 153.199219 Z M 440.859375 108.582031 " fill-opacity="1" fill-rule="nonzero"/></g></g></g><g clip-path="url(#3e334e521e)"><g clip-path="url(#3736f42536)"><path fill="#ffffff" d="M 523.296875 27.597656 L 576.632812 27.597656 L 576.632812 164.683594 L 523.296875 164.683594 Z M 523.296875 27.597656 " fill-opacity="1" fill-rule="nonzero"/></g></g><g clip-path="url(#94fa29aed3)"><g clip-path="url(#02888b4903)"><path fill="#385724" d="M 523.296875 27.597656 L 576.632812 27.597656 L 576.632812 164.683594 L 523.296875 164.683594 Z M 523.296875 27.597656 " fill-opacity="1" fill-rule="nonzero"/></g></g><g clip-path="url(#f60b8c2284)"><g clip-path="url(#d410d47b79)"><g clip-path="url(#3d0fe476d9)"><path fill="#ebebeb" d="M 620.390625 142.140625 L 546.792969 186.984375 L 522.050781 146.378906 L 595.648438 101.535156 Z M 620.390625 142.140625 " fill-opacity="1" fill-rule="nonzero"/></g></g></g><g clip-path="url(#4021f6d82f)"><path fill="#ebebeb" d="M 714.828125 15.347656 C 714.742188 15.433594 713.109375 15.652344 711.195312 15.835938 C 705.550781 16.378906 699.605469 17.703125 694.84375 19.476562 C 693.507812 19.972656 692.03125 20.519531 691.5625 20.691406 C 689.855469 21.324219 685.050781 23.816406 682.089844 25.609375 C 678.363281 27.867188 673.96875 31.132812 670.957031 33.875 C 668.574219 36.046875 663.742188 41.304688 661.914062 43.714844 C 660.347656 45.777344 657.3125 50.25 657.3125 50.496094 C 657.3125 50.609375 656.894531 51.324219 656.382812 52.085938 C 655.511719 53.375 654.542969 55.277344 652.363281 59.976562 C 651.878906 61.015625 651.484375 61.976562 651.484375 62.105469 C 651.484375 62.234375 651.382812 62.53125 651.257812 62.765625 C 650.472656 64.234375 648.40625 71.246094 647.808594 74.480469 L 647.332031 77.03125 C 647.210938 77.699219 647 79.175781 646.871094 80.3125 C 646.742188 81.445312 646.523438 83.03125 646.390625 83.832031 C 646.070312 85.710938 646.066406 93.941406 646.382812 96.054688 C 646.515625 96.949219 646.730469 98.773438 646.859375 100.109375 C 647.3125 104.773438 647.746094 106.945312 648.269531 107.144531 C 648.53125 107.246094 676.449219 107.347656 684.945312 107.28125 C 685.511719 107.277344 685.734375 107.164062 685.734375 106.875 C 685.734375 106.511719 685.007812 104.21875 684.511719 103.023438 C 684.402344 102.757812 684.253906 102.210938 684.1875 101.808594 C 684.117188 101.410156 683.894531 100.425781 683.6875 99.625 C 682.695312 95.757812 682.574219 94.742188 682.574219 90.1875 C 682.578125 87.019531 682.6875 85.152344 682.933594 84.117188 C 683.128906 83.292969 683.519531 81.636719 683.800781 80.433594 C 684.082031 79.230469 684.40625 78.027344 684.519531 77.761719 C 684.636719 77.492188 684.855469 76.839844 685.011719 76.304688 C 685.167969 75.769531 685.9375 74.019531 686.726562 72.410156 C 689.960938 65.8125 696.402344 58.988281 702.375 55.832031 C 708.996094 52.332031 717.125 50.882812 723.75 52.023438 C 725.949219 52.402344 728.640625 53.082031 730.917969 53.839844 C 732.449219 54.347656 736.839844 56.601562 738.230469 57.597656 C 740.132812 58.957031 744.480469 62.875 745.445312 64.105469 C 749.15625 68.816406 749.453125 69.253906 750.703125 71.777344 C 752.585938 75.574219 753.519531 78.234375 754.246094 81.890625 C 754.40625 82.691406 754.632812 83.730469 754.75 84.199219 C 755.128906 85.726562 755.011719 95.289062 754.585938 97.195312 C 754.378906 98.128906 754.144531 99.363281 754.066406 99.933594 C 753.992188 100.503906 753.832031 101.027344 753.71875 101.101562 C 753.601562 101.171875 753.507812 101.445312 753.507812 101.710938 C 753.507812 102.535156 752.558594 105.109375 751.28125 107.761719 C 748.292969 113.941406 743.535156 119.511719 737.960938 123.34375 C 735.03125 125.359375 731.234375 127.054688 728 127.796875 C 727 128.023438 725.90625 128.304688 725.570312 128.414062 C 725.238281 128.527344 724.21875 128.691406 723.304688 128.777344 C 720.449219 129.050781 720.714844 127.132812 720.714844 147.460938 C 720.714844 160.902344 720.78125 165.101562 721.007812 165.238281 C 721.925781 165.808594 730.621094 164.761719 735.410156 163.503906 C 740.425781 162.1875 740.863281 162.042969 745.976562 160.054688 C 748.082031 159.234375 753.652344 156.507812 754.988281 155.644531 C 755.578125 155.265625 756.824219 154.46875 757.757812 153.871094 C 762.5625 150.8125 768.597656 145.527344 772.941406 140.585938 C 773.804688 139.601562 774.671875 138.566406 774.871094 138.277344 C 775.066406 137.992188 775.375 137.609375 775.558594 137.421875 C 775.738281 137.238281 776.070312 136.800781 776.289062 136.453125 C 776.511719 136.101562 777.378906 134.871094 778.214844 133.71875 C 779.054688 132.5625 779.742188 131.546875 779.742188 131.460938 C 779.742188 131.371094 780.140625 130.675781 780.628906 129.914062 C 782.527344 126.945312 786.035156 119.472656 787.148438 116.019531 C 787.386719 115.285156 787.714844 114.355469 787.875 113.957031 C 788.238281 113.058594 788.664062 111.507812 789.070312 109.582031 C 789.242188 108.78125 789.503906 107.742188 789.65625 107.273438 C 789.925781 106.441406 790.453125 103.570312 790.96875 100.136719 C 791.320312 97.78125 791.496094 84.152344 791.191406 82.621094 C 791.0625 81.953125 790.769531 80.09375 790.542969 78.488281 C 789.894531 73.875 789.808594 73.417969 789.539062 72.902344 C 789.398438 72.636719 789.207031 71.925781 789.121094 71.324219 C 789.03125 70.722656 788.808594 69.792969 788.628906 69.257812 C 788.449219 68.726562 788.054688 67.523438 787.75 66.585938 C 787.449219 65.652344 787.109375 64.78125 786.992188 64.65625 C 786.878906 64.527344 786.785156 64.1875 786.785156 63.898438 C 786.785156 63.390625 786.398438 62.375 785.207031 59.785156 C 784.898438 59.117188 784.1875 57.546875 783.625 56.292969 C 783.0625 55.039062 782.300781 53.5625 781.929688 53.011719 C 781.558594 52.460938 780.679688 51.027344 779.972656 49.824219 C 779.269531 48.625 778.242188 47.039062 777.691406 46.304688 C 777.144531 45.570312 776.367188 44.484375 775.96875 43.894531 C 774.234375 41.316406 767.261719 33.976562 764.683594 32.011719 C 764.214844 31.65625 763.066406 30.757812 762.132812 30.015625 C 761.195312 29.269531 759.664062 28.171875 758.730469 27.566406 C 757.679688 26.890625 756.632812 26.214844 755.585938 25.535156 C 753.554688 24.214844 747.480469 21.257812 744.359375 20.070312 C 742.910156 19.515625 741.453125 18.949219 741.117188 18.804688 C 740.785156 18.664062 739.910156 18.40625 739.175781 18.234375 C 737.878906 17.929688 736.582031 17.621094 735.289062 17.308594 C 731.300781 16.347656 729.324219 15.988281 726.179688 15.664062 C 722.925781 15.324219 715.070312 15.105469 714.828125 15.347656 " fill-opacity="1" fill-rule="evenodd"/></g></svg>